PathFileType	4	(X/Y/Z)	C:\Users\WrightLab\Desktop\Jo\P5V122.trc
DataRate	CameraRate	NumFrames	NumMarkers	Units	OrigDataRate	OrigDataStartFrame	OrigNumFrames
100.00	100.00	       9	19	mm	100.00	356	       569
Frame#	Time	Headset_Front			Headset_Back			Headset_Left			Headset_Right			Left_Shoulder			Right_Shoulder			Sternum			C7			Left Elbow			Right Elbow			Left Wrist			Right Wrist			Left ASIS			Right ASIS			S2			Left Knee			Right Knee			Left Ankle			Right Ankle			
		X1	Y1	Z1	X2	Y2	Z2	X3	Y3	Z3	X4	Y4	Z4	X5	Y5	Z5	X6	Y6	Z6	X7	Y7	Z7	X8	Y8	Z8	X9	Y9	Z9	X10	Y10	Z10	X11	Y11	Z11	X12	Y12	Z12	X13	Y13	Z13	X14	Y14	Z14	X15	Y15	Z15	X16	Y16	Z16	X17	Y17	Z17	X18	Y18	Z18	X19	Y19	Z19	

356	3.550	223.45583	1641.93872	1409.00525	295.88168	1808.01208	1151.62598							503.84387	1547.84644	1134.15283	101.84063	1493.63586	1214.61658	318.31287	1372.55481	1271.83350	271.26898	1556.13196	1055.82495	599.79620	1252.19141	1113.49573	23.72454	1212.79590	1180.21753	659.53180	1022.83038	1198.04639	35.26597	999.51971	1333.07153	477.85254	983.91400	1265.55750	193.67398	989.21082	1282.69666	364.04691	1011.72955	993.79169	572.05463	585.97638	1312.50964	219.95804	528.26764	1238.69263	573.62946	192.76634	1187.15771	288.28494	142.02852	1035.22742	
357	3.560	223.22353	1642.45105	1415.90027	296.64709	1808.45618	1159.90723							506.12653	1547.43933	1144.00085	103.01697	1493.72473	1221.31860	318.38449	1372.27881	1280.46631	273.44006	1556.18042	1064.93970	602.05823	1251.64014	1122.88000	25.25338	1212.85571	1186.63464	661.53937	1022.18347	1207.17029	36.63832	1000.37518	1339.63135	477.82977	983.31873	1274.18066	193.57327	989.15552	1287.66113	368.33356	1012.53461	1000.67340	570.23492	585.47571	1323.06519	218.57011	527.49518	1240.26135	582.58472	185.75940	1216.71155	288.45349	142.94855	1035.62463	
358	3.570	222.36758	1643.18396	1424.74622	299.18564	1807.95837	1168.06433							508.78195	1547.46790	1155.66833	104.28619	1493.67151	1227.97595	318.65012	1371.76453	1288.90552	276.45239	1556.42529	1073.05029	603.68579	1251.74109	1134.84412	26.64740	1213.33191	1192.51416	663.67859	1021.64093	1217.03674	38.08107	1000.94153	1345.70300	478.25208	982.74481	1282.65149	194.17250	988.24780	1292.27271	372.21112	1013.51996	1007.65320	568.63123	584.58875	1332.18787	217.76591	526.51770	1241.80774	590.37805	179.12476	1246.41943	288.72372	143.59694	1036.24402	
359	3.580	221.76431	1643.64636	1431.82849	302.33444	1808.00769	1176.02515							510.14783	1546.94153	1165.95459	105.48467	1493.66357	1234.63611	319.63708	1371.25342	1297.26770	279.00211	1556.75134	1081.38647	605.40417	1251.27734	1145.31445	28.10267	1213.23962	1198.68372	664.51843	1021.15228	1226.89307	39.20302	1000.99402	1352.26501	478.56250	982.14673	1291.15271	194.09706	988.12976	1297.31555	376.74158	1013.58337	1015.40704	566.87885	583.08136	1341.66077	216.31313	526.01080	1243.91638	597.63220	174.53717	1277.79272	289.23309	144.45818	1036.52966	
360	3.590	221.47598	1644.08691	1440.44849	304.66425	1807.33911	1184.48425							511.91425	1547.24609	1177.54248	106.83830	1493.52136	1241.26379	319.90472	1370.93347	1305.82361	279.96146	1556.42334	1089.50586	608.83838	1252.18396	1156.87048	29.58370	1213.56958	1204.68420	667.21167	1020.04657	1236.05469	40.09722	1001.21350	1358.71729	479.30374	981.77155	1299.60217	194.24156	987.99451	1302.41162	380.60721	1013.41364	1024.15149	563.72400	579.72052	1349.53101	215.84927	525.81683	1245.87903	602.57751	169.25684	1307.73938	289.61755	145.35071	1037.01917	
361	3.600	221.25172	1644.26111	1447.50818	305.61066	1807.42749	1193.00183							513.83569	1546.58167	1187.87842	107.78561	1493.39966	1247.94983	320.34552	1370.24365	1314.12659	282.91855	1557.00891	1097.72668	609.53809	1250.44800	1166.13025	30.80630	1213.25854	1210.82422	668.25098	1019.16199	1245.80859	41.02773	1001.13293	1364.48779	478.48672	981.23981	1308.76184	194.51111	987.51898	1307.91272	384.52841	1013.50140	1032.67822	562.22308	577.24274	1357.40417	215.53993	525.40942	1248.28149	606.93250	166.23183	1337.17700	289.65689	146.76248	1037.96350	
362	3.610	220.64999	1644.17102	1455.19641	308.52386	1806.75635	1201.32727							515.66388	1546.35913	1199.52051	109.11695	1492.98718	1254.61133	320.27457	1369.78088	1322.79114	288.24402	1556.22180	1107.02649	612.10681	1250.74854	1178.43677	32.29686	1213.12463	1216.65356	669.93958	1018.26813	1256.32629	41.54187	1000.73773	1369.90845	478.42184	980.38983	1318.23621	194.63297	987.20673	1313.42188	388.49054	1013.13000	1040.60693	559.53790	574.13721	1364.53503	215.08417	525.24896	1250.96399	609.48090	163.24039	1365.94495	289.38477	147.84714	1038.57800	
363	3.620	219.53946	1644.68848	1464.00537	310.66373	1806.20923	1209.80579							516.90192	1545.51147	1210.60046	110.30615	1493.06458	1261.21631	320.70477	1369.22546	1331.53088	289.01248	1556.41895	1115.53992	614.29474	1250.00024	1189.02698	33.53727	1212.97314	1222.77332	671.78040	1018.34430	1267.03345	41.88941	999.98560	1375.25134	478.72263	979.84900	1327.46594	194.73135	986.85425	1319.04211	391.87238	1013.26489	1049.26123	558.33899	571.78345	1371.61096	215.01216	525.67432	1253.83228	611.13824	160.98395	1393.00891	289.39581	149.47226	1040.05298	
364	3.630	218.95860	1644.67969	1471.69641	312.28732	1805.83545	1218.32910							519.25378	1545.50671	1222.09399	111.31555	1492.43604	1267.99561	320.76041	1368.61084	1339.94312	290.38980	1556.04504	1124.03125	615.67407	1249.98108	1200.86853	35.18720	1212.59375	1228.42871	673.31238	1017.37830	1277.70776	42.43436	998.92676	1380.45569	478.68192	979.13885	1337.84924	194.79047	986.34656	1324.80530	394.68210	1013.56128	1059.82043	556.36041	568.60522	1377.57483	215.00591	525.59576	1257.25671	611.50873	160.97160	1418.73096	289.67105	150.98582	1041.10913	
